# xmcd
#
# Track frame offsets: 
#        150
#        34698
#        53871
#        73119
#        101892
#        132315
#        179463
#        201786
#        237534
#        274182
#
# Disc length: 3900 seconds
#
# Revision: 2
# Processed by: cddbd v1.5.2PL0 Copyright (c) Steve Scherf et al.
# Submitted via: ExactAudioCopy v0.99pb5
#
DISCID=9a0f3a0a
DTITLE=Blindside Blues Band - Smokehouse Sessions
DYEAR=2009
DGENRE=Blues/Rock
TTITLE0=Little Red Rooster
TTITLE1=Rock Me Baby
TTITLE2=Dirty Double Dealer
TTITLE3=Sweet Little Angel
TTITLE4=Ramblin' On My Mind
TTITLE5=Hoochie Coochie Man
TTITLE6=Same Old Situation
TTITLE7=Who Knows Jam
TTITLE8=Crossroads 69
TTITLE9=Albatross
EXTD=
EXTT0=
EXTT1=
EXTT2=
EXTT3=
EXTT4=
EXTT5=
EXTT6=
EXTT7=
EXTT8=
EXTT9=
PLAYORDER=
